<?xml version="1.0" encoding="UTF-8"?>
<svg viewBox="0 0 395 340" xmlns="http://www.w3.org/2000/svg">
    <g>
        <title>Layer 1</title>
        <g stroke="#81f5e2">
            <path d="m210.79 332.34c-85.635 0-155-66.903-155-149.5 0-82.597 69.365-149.5 155-149.5s155 66.903 155 149.5c0 82.597-69.365 149.5-155 149.5z" fill="none" opacity="undefined" stroke-width="1" />
            <path d="m210.79 325.34c-81.215 0-147-63.547-147-142 0-78.453 65.785-142 147-142 81.215 0 147 63.547 147 142 0 78.453-65.785 142-147 142z" fill="none" opacity="undefined" stroke-width="1" />
            <g transform="rotate(19 253.4 46.903)" fill="#81f5e2">
                <path d="m245.75 46.903c4.3967-0.13267 7.375-2.0564 7.6587-7.562 0.70914 5.6052 2.4111 7.2304 7.6587 7.562-5.1058 0.33167-6.8077 3.2504-7.6587 7.562-0.70914-4.2122-3.6875-6.8324-7.6587-7.562z" />
                <path d="m248.87 43.498c2.7616 2.024 5.7733 2.5057 9.3718-0.02983-3.0554 3.0554-3.0295 4.652-0.03827 7.3054-3.3175-2.2643-6.1706-1.6572-9.3718 0.02983 2.1887-2.3798 2.0041-5.0652 0.03827-7.3054z" />
            </g>
            <g transform="rotate(-36 122.98 69.727)" fill="#81f5e2">
                <path d="m115.33 69.727c4.3967-0.13267 7.375-2.0564 7.6587-7.562 0.70914 5.6052 2.4111 7.2304 7.6587 7.562-5.1058 0.33167-6.8077 3.2504-7.6587 7.562-0.70914-4.2122-3.6875-6.8324-7.6587-7.562z" />
                <path d="m118.45 66.321c2.7616 2.024 5.7733 2.5057 9.3718-0.02983-3.0554 3.0554-3.0295 4.652-0.03827 7.3054-3.3175-2.2643-6.1706-1.6572-9.3718 0.02983 2.1887-2.3798 2.0041-5.0652 0.03827-7.3054z" />
            </g>
            <g transform="rotate(19 165.98 318.33)" fill="#81f5e2">
                <path d="m158.32 318.33c4.3967-0.13267 7.375-2.0564 7.6587-7.562 0.70914 5.6052 2.4111 7.2304 7.6587 7.562-5.1058 0.33167-6.8077 3.2504-7.6587 7.562-0.70914-4.2122-3.6875-6.8324-7.6587-7.562z" />
                <path d="m161.44 314.93c2.7616 2.024 5.7733 2.5057 9.3718-0.02983-3.0554 3.0554-3.0295 4.652-0.03827 7.3054-3.3175-2.2643-6.1706-1.6572-9.3718 0.02983 2.1887-2.3798 2.0041-5.0652 0.03827-7.3054z" />
            </g>
            <g transform="rotate(-36 299.56 295.85)" fill="#81f5e2">
                <path d="m291.9 295.85c4.3967-0.13267 7.375-2.0564 7.6587-7.562 0.70914 5.6052 2.4111 7.2304 7.6587 7.562-5.1058 0.33167-6.8077 3.2504-7.6587 7.562-0.70914-4.2122-3.6875-6.8324-7.6587-7.562z" />
                <path d="m295.02 292.44c2.7616 2.024 5.7733 2.5057 9.3718-0.02983-3.0554 3.0554-3.0295 4.652-0.03827 7.3054-3.3175-2.2643-6.1706-1.6572-9.3718 0.02983 2.1887-2.3798 2.0041-5.0652 0.03827-7.3054z" />
            </g>
            <g stroke-width="1">
                <path transform="rotate(-11.79 86.173 281.45)" d="m76.427 244.63c-35.611 25.392-60.026 49.685-43.545 70.596 19.13 12.845 65.337-17.459 111.84-46.734" fill="none" opacity="undefined" />
                <path transform="rotate(167 317.15 49.904)" d="m336.73 8.4701c-32.109 23.677-76.622 52.157-57.217 77.395 22.524 15.503 56.651-5.4337 80.004-19.515" fill="none" opacity="undefined" />
                <g transform="rotate(-.34589 304.59 96.188)" fill="#81f5e2">
                    <path d="m291.93 96.187c7.266-0.24072 12.188-3.7312 12.657-13.721 1.1719 10.17 3.9846 13.119 12.657 13.721-8.438 0.6018-11.251 5.8977-12.657 13.721-1.1719-7.6429-6.0941-12.397-12.657-13.721z" />
                    <path d="m297.09 90.008c4.5639 3.6725 9.5412 4.5466 15.488-0.05413-5.0494 5.5439-5.0066 8.4409-0.06325 13.255-5.4826-4.1086-10.198-3.0069-15.488 0.05413 3.6171-4.318 3.312-9.1908 0.06325-13.255z" />
                </g>
                <g transform="rotate(-.34589 140.59 255.19)" fill="#81f5e2">
                    <path d="m127.93 255.19c7.266-0.24072 12.188-3.7312 12.657-13.721 1.1719 10.17 3.9846 13.119 12.657 13.721-8.438 0.60181-11.251 5.8977-12.657 13.721-1.1719-7.6429-6.0941-12.397-12.657-13.721z" />
                    <path d="m133.09 249.01c4.5639 3.6725 9.5412 4.5466 15.488-0.05413-5.0494 5.5439-5.0066 8.4409-0.06325 13.255-5.4826-4.1086-10.198-3.0069-15.488 0.05414 3.6171-4.318 3.312-9.1908 0.06325-13.255z" />
                </g>
            </g>
            <g stroke-width="1">
                <path transform="rotate(26.064 58.624 194.11)" d="m39.783 152.9c-25.357 27.17-33.276 61.654-19.701 79.212 15.756 10.786 45.69-6.2331 83.648-42.893" fill="none" opacity="undefined" />
                <path transform="rotate(210.71 343.7 96.404)" d="m325.75 56.64c-19.091 32.685-27.869 58.594-14.294 76.152 15.756 10.786 48.431-5.5349 71.075-30.772" fill="none" opacity="undefined" />
                <g transform="rotate(-.34589 330.59 145.19)" fill="#81f5e2">
                    <path d="m317.93 145.19c7.266-0.24072 12.188-3.7312 12.657-13.721 1.1719 10.17 3.9846 13.119 12.657 13.721-8.438 0.6018-11.251 5.8977-12.657 13.721-1.1719-7.6429-6.0941-12.397-12.657-13.721z" />
                    <path d="m323.09 139.01c4.5639 3.6725 9.5412 4.5466 15.488-0.05413-5.0494 5.5439-5.0066 8.4409-0.06325 13.255-5.4826-4.1086-10.198-3.0069-15.488 0.05413 3.6171-4.318 3.312-9.1908 0.06325-13.255z" />
                </g>
                <g transform="rotate(-.34589 105.59 208.19)" fill="#81f5e2">
                    <path d="m92.932 208.19c7.266-0.24072 12.188-3.7312 12.657-13.721 1.1719 10.17 3.9846 13.119 12.657 13.721-8.438 0.6018-11.251 5.8977-12.657 13.721-1.1719-7.6429-6.0941-12.397-12.657-13.721z" />
                    <path d="m98.088 202.01c4.5639 3.6725 9.5412 4.5466 15.488-0.05413-5.0494 5.5439-5.0066 8.4409-0.06325 13.255-5.4826-4.1086-10.198-3.0069-15.488 0.05413 3.6171-4.318 3.312-9.1908 0.06325-13.255z" />
                </g>
            </g>
        </g>
    </g>
</svg>