<?xml version="1.0" encoding="UTF-8"?>
<svg viewBox="0 0 420 120" xmlns="http://www.w3.org/2000/svg">
    <g>
        <title>Layer 1</title>
        <g fill="#81f5e2" stroke="#81f5e2">
            <line x1="200.08" x2="197.94" y1=".48219" y2="46.641" />
            <g fill="#81f5e2">
                <path d="m184.9 53.233c7.5102-0.23925 12.598-3.7082 13.082-13.636 1.2113 10.107 4.1185 13.038 13.082 13.636-8.7214 0.59809-11.629 5.8612-13.082 13.636-1.2113-7.5956-6.2988-12.32-13.082-13.636z" />
                <path d="m190.23 47.093c4.7172 3.6497 9.8616 4.5184 16.008-0.05379-5.2191 5.5096-5.1748 8.3886-0.06537 13.173-5.6668-4.0831-10.54-2.9883-16.008 0.05379 3.7386-4.2913 3.4233-9.1337 0.06537-13.173z" />
            </g>
            <line x1="238.09" x2="235.95" y1=".57983" y2="46.739" />
            <g fill="#81f5e2">
                <path d="m226.72 38.098c5.7955-0.17757 9.7213-2.7523 10.095-10.121 0.93475 7.5019 3.1782 9.677 10.095 10.121-6.7302 0.4439-8.9735 4.3503-10.095 10.121-0.93475-5.6376-4.8606-9.1444-10.095-10.121z" />
                <path d="m230.83 33.541c3.6402 2.7089 7.61 3.3536 12.353-0.03993-4.0275 4.0893-3.9933 6.2262-0.05044 9.7774-4.3729-3.0305-8.1338-2.218-12.353 0.03993 2.885-3.1851 2.6417-6.7792 0.05046-9.7774z" />
            </g>
            <line x1="223.81" x2="221.67" y1="-.53335" y2="62.03" />
            <g fill="#81f5e2">
                <path d="m212.43 66.571c5.172-0.16215 8.6754-2.5133 9.0091-9.2421 0.83418 6.8505 2.8362 8.8368 9.0091 9.2421-6.0061 0.40536-8.0081 3.9726-9.0091 9.2421-0.83418-5.148-4.3377-8.3504-9.0091-9.2421z" />
                <path d="m216.1 62.41c3.2485 2.4737 6.7913 3.0624 11.024-0.03646-3.5942 3.7342-3.5637 5.6856-0.04502 8.9285-3.9025-2.7674-7.2587-2.0254-11.024 0.03646 2.5746-2.9085 2.3575-6.1906 0.04502-8.9285z" />
            </g>
        </g>
        <g fill="#81f5e2" stroke="#81f5e2">
            <line x1="368.84" x2="366.5" y1=".50142" y2="47.535" />
            <g fill="#81f5e2">
                <path d="m354.62 50.371c6.6736-0.16522 11.194-2.5609 11.625-9.4172 1.0764 6.9803 3.6597 9.0042 11.625 9.4172-7.7499 0.41304-10.333 4.0478-11.625 9.4172-1.0764-5.2456-5.5971-8.5086-11.625-9.4172z" />
                <path d="m359.36 46.131c4.1917 2.5205 8.7631 3.1204 14.225-0.03715-4.6377 3.805-4.5984 5.7933-0.05809 9.0976-5.0355-2.8198-9.3662-2.0638-14.225 0.03713 3.3222-2.9636 3.042-6.3078 0.05809-9.0976z" />
            </g>
            <line x1="411.56" x2="409.23" y1=".00395" y2="40.471" />
            <g fill="#81f5e2">
                <path d="m400.91 39.427c4.9702-0.12855 8.337-1.9927 8.6577-7.3278 0.80164 5.4316 2.7256 7.0064 8.6577 7.3278-5.7718 0.3214-7.6958 3.1497-8.6577 7.3278-0.80164-4.0817-4.1685-6.6208-8.6577-7.3278z" />
                <path d="m404.44 36.127c3.1218 1.9613 6.5264 2.4281 10.594-0.02891-3.454 2.9608-3.4247 4.5079-0.04326 7.0791-3.7503-2.1942-6.9755-1.6059-10.594 0.02891 2.4742-2.3061 2.2655-4.9083 0.04328-7.0791h-2e-5z" />
            </g>
            <line x1="394.77" x2="392.43" y1="-.53335" y2="63.215" />
            <g fill="#81f5e2">
                <path d="m384.12 66.35c4.7999-0.13903 8.0513-2.155 8.361-7.9247 0.77416 5.8741 2.6322 7.5772 8.361 7.9247-5.574 0.34758-7.432 3.4063-8.361 7.9247-0.77416-4.4142-4.0256-7.1602-8.361-7.9247z" />
                <path d="m387.52 62.782c3.0148 2.1211 6.3027 2.6259 10.231-0.03128-3.3356 3.202-3.3073 4.8752-0.04179 7.6558-3.6217-2.3729-6.7365-1.7367-10.231 0.03128 2.3894-2.494 2.1879-5.3082 0.04179-7.6558z" />
            </g>
        </g>
        <g fill="#81f5e2" stroke="#81f5e2">
            <g fill="#81f5e2">
                <line x1="29.13" x2="27.204" y1="1.0472" y2="46.812" />
                <g fill="#81f5e2">
                    <path d="m13.515 54.509c7.7409-0.27796 12.985-4.3083 13.484-15.843 1.2485 11.743 4.245 15.148 13.484 15.843-8.9894 0.69488-11.986 6.8098-13.484 15.843-1.2485-8.8249-6.4923-14.314-13.484-15.843z" />
                    <path d="m19.008 47.375c4.8621 4.2404 10.165 5.2496 16.5-0.06251-5.3794 6.4013-5.3338 9.7463-0.06738 15.305-5.8409-4.7439-10.864-3.472-16.5 0.06251 3.8535-4.9859 3.5285-10.612 0.06738-15.305z" />
                </g>
            </g>
            <line x1="47.555" x2="45.63" y1="-1.1214" y2="60.908" />
            <g fill="#81f5e2">
                <path d="m37.317 65.41c4.6546-0.16075 7.8076-2.4918 8.1079-9.1631 0.75073 6.792 2.5525 8.7613 8.1079 9.1631-5.4053 0.40189-7.207 3.9386-8.1079 9.1631-0.75073-5.104-3.9038-8.279-8.1079-9.1631z" />
                <path d="m40.62 61.284c2.9236 2.4525 6.1119 3.0362 9.9215-0.03615-3.2346 3.7023-3.2072 5.637-0.04052 8.8522-3.5121-2.7437-6.5325-2.0081-9.9215 0.03615 2.3171-2.8837 2.1216-6.1376 0.04052-8.8522z" />
            </g>
            <g fill="#81f5e2">
                <line x1="68.718" x2="66.793" y1="-1.1795" y2="44.585" />
                <g fill="#81f5e2">
                    <path d="m57.013 50.83c5.9172-0.22189 9.9254-3.4396 10.307-12.648 0.95437 9.3753 3.2449 12.094 10.307 12.648-6.8715 0.55475-9.162 5.4367-10.307 12.648-0.95437-7.0454-4.9627-11.428-10.307-12.648z" />
                    <path d="m61.212 45.135c3.7166 3.3854 7.7698 4.191 12.613-0.04989-4.112 5.1105-4.0772 7.781-0.05151 12.219-4.4648-3.7873-8.3045-2.7718-12.613 0.04989 2.9456-3.9805 2.6972-8.4721 0.05151-12.219z" />
                </g>
            </g>
        </g>
    </g>
</svg>